<svg xmlns="http://www.w3.org/2000/svg" viewBox="0 0 500 500"><linearGradient id="a" gradientUnits="userSpaceOnUse" x1="343.605" y1="574.503" x2="343.605" y2="289.819" gradientTransform="translate(0 -130.2)"><stop offset="0" stop-color="#f1647c"/><stop offset="1" stop-color="#f8c7ac"/></linearGradient><path d="M203.9 159.6h279.3c9.2 0 16.7 7.5 16.7 16.7v184.6c0 9.2-7.5 16.7-16.7 16.7h-29.6v4.7l.2 54.2c.1 7.3-9.3 10.5-13.7 4.7l-62.6-63.6H203.9c-9.2 0-16.7-7.5-16.7-16.7V176.3c0-9.2 7.4-16.7 16.6-16.7h.1z" fill="url(#a)"/><path d="M396.9 310.3c0 2.2-.8 4.2-2.3 5.8-1.6 1.6-3.2 2.5-5.2 2.5-3.5 0-17.8-10-42.9-29.9l-21.9 23.1c-5.5 5.6-9.4 8.3-11.6 8.3-2.2 0-4.3-.9-5.8-2.5-1.6-1.5-2.5-3.6-2.5-5.8 0-2.7 3.1-6.8 9.2-12.3 10.4-9.4 17.8-16.7 22.5-21.8-15.2-15.1-25.3-28.6-30.2-40.5-3.1-1.7-4.6-4-4.6-6.7 0-2.3.8-4.4 2.4-6 1.4-1.6 3.5-2.5 5.6-2.5 3-.1 5.8 1.2 7.6 3.5 1.4 1.6 3.2 4.9 5.6 9.9 4.3 9.2 12.2 19.4 23.7 30.4 8.6-9.6 15.2-18.9 19.7-28 1.6-3.7 3.2-7.4 4.9-11.1 1.6-3 3.9-4.5 6.9-4.5 2.2-.1 4.4.7 6 2.3 1.6 1.5 2.3 3.5 2.3 6 0 9.5-9.3 25.3-27.9 47.3 4.9 4.2 14.2 11.1 27.8 20.7 7.1 4.9 10.7 8.9 10.7 11.8z" fill="#c45c6a"/><linearGradient id="b" gradientUnits="userSpaceOnUse" x1="160.034" y1="523.181" x2="152.795" y2="62.475" gradientTransform="translate(0 -130.2)"><stop offset="0" stop-color="#45af8a"/><stop offset="1" stop-color="#d9e8ae"/></linearGradient><path d="M296.1 52.4H16.7C7.5 52.4 0 59.9 0 69.1v184.6c0 9.2 7.5 16.7 16.7 16.7h29.6v4.7l-.2 54.2c-.1 7.3 9.3 10.5 13.7 4.7l62.6-63.5h173.7c9.2 0 16.7-7.5 16.7-16.7V69.1c0-9.2-7.4-16.7-16.6-16.7h-.1z" fill="url(#b)"/><path fill="none" stroke="#449b7f" stroke-width="23" stroke-linecap="round" stroke-linejoin="round" d="M111.7 164.8l35.3 36.7 40.6-82.9"/></svg>