<svg version="1.1" id="Layer_1" xmlns="http://www.w3.org/2000/svg" x="0" y="0" viewBox="0 0 500 500" xml:space="preserve"><style>.st1,.st3{fill:none;stroke:#5a4f51;stroke-width:35;stroke-linecap:round;stroke-linejoin:round}.st3{stroke:#e472ac;stroke-width:23}</style><linearGradient id="SVGID_1_" gradientUnits="userSpaceOnUse" x1="221.236" y1="457.209" x2="221.236" y2="119.114" gradientTransform="matrix(1 0 0 -1 0 535.6)"><stop offset="0" stop-color="#fff"/><stop offset="1" stop-color="#f393bd"/></linearGradient><path d="M396.7 416.5h-351c-19.9 0-36-14.4-36-32.1V110.6c0-17.8 16.1-32.2 36-32.2h351.1c19.9 0 36 14.4 36 32.1v273.7c0 17.8-16 32.2-35.9 32.2h-.2z" fill="url(#SVGID_1_)"/><path class="st1" d="M104.1 67v39M339.8 67.3v39.1"/><path d="M397.7 76.9H43.9C24 76.8 7.7 91.2 7.6 109.1v41.8H434v-41.8c0-17.7-16.3-32.2-36.3-32.2z" fill="#5a4f51"/><path class="st3" d="M240.9 208.7h-43.7M117.8 209H74.1M117.2 258.5H73.5M118.1 310.7H74.4M117.5 360.2H73.8M240.3 258.2h-43.7M241.2 310.4h-43.7M240.6 359.9h-43.7M362 209.3h-43.7M361.4 258.8h-43.7M362.4 311h-43.7"/><circle cx="401" cy="376.6" r="92" fill="#fff" stroke="#e472ac" stroke-width="11" stroke-linecap="round" stroke-linejoin="round"/><path fill="none" stroke="#5a4f51" stroke-width="11" stroke-linecap="round" stroke-linejoin="round" d="M401 330.1v46.5l37.4 37.4"/></svg>