<svg xmlns="http://www.w3.org/2000/svg" xmlns:xlink="http://www.w3.org/1999/xlink" viewBox="0 0 50 50" height="50mm" width="50mm"><defs><linearGradient id="a"><stop offset="0" stop-color="#ff8383"/><stop offset="1" stop-color="#ff92c3"/></linearGradient><linearGradient gradientUnits="userSpaceOnUse" y2="0" x2="0" y1="-117.612" x1="-1.294" id="b" xlink:href="#a"/></defs><path d="M0 0c-33.347 0-60.388-27.035-60.388-60.388 0-26.68 17.303-49.316 41.297-57.301 3.018-.559 4.126 1.31 4.126 2.905 0 1.439-.056 6.197-.082 11.243-16.8-3.653-20.345 7.125-20.345 7.125-2.747 6.979-6.705 8.836-6.705 8.836-5.479 3.748.413 3.671.413 3.671 6.064-.426 9.257-6.224 9.257-6.224 5.386-9.231 14.127-6.562 17.573-5.019.543 3.902 2.107 6.567 3.834 8.075-13.413 1.526-27.513 6.705-27.513 29.844 0 6.592 2.359 11.98 6.222 16.209-.627 1.521-2.694 7.663.586 15.981 0 0 5.071 1.622 16.61-6.191 4.817 1.338 9.983 2.009 15.115 2.033 5.132-.024 10.302-.695 15.128-2.033 11.526 7.813 16.59 6.191 16.59 6.191 3.287-8.318 1.22-14.46.593-15.981 3.872-4.229 6.214-9.617 6.214-16.209 0-23.195-14.127-28.301-27.574-29.796 2.166-1.874 4.096-5.549 4.096-11.183 0-8.08-.069-14.583-.069-16.572 0-1.608 1.086-3.49 4.147-2.898 23.982 7.994 41.263 30.622 41.263 57.294C60.388-27.035 33.351 0 0 0" fill="url(#b)" fill-rule="evenodd" transform="matrix(.35278 0 0 -.35278 25 4.223)"/></svg>