<svg xmlns="http://www.w3.org/2000/svg" width="2312" height="809"><g fill="none" fill-rule="evenodd"><g transform="translate(37 36)"><path fill="#FFF" fill-rule="nonzero" d="M.17 352.11C.07 354.74 0 357.38 0 360c0 133.65 127.74 242 285.32 242 157.58 0 285.31-108.35 285.31-242 0-2.65-.07-5.29-.17-7.92l-570.29.03z"/><rect width="192.25" height="78.56" x="189" y="536.32" fill="#FFF" fill-rule="nonzero" rx="27.1"/><rect width="615.91" height="18.64" x="49.452" y="161.958" fill="#FFF" fill-rule="nonzero" rx="5.65" transform="rotate(-10.21 357.407 171.278)"/><rect width="615.91" height="18.64" x="38.439" y="98.993" fill="#FFF" fill-rule="nonzero" rx="5.65" transform="rotate(-18.75 346.394 108.313)"/><path stroke="#FFF" stroke-width="13" d="M256 359.11s-79-35.84 0-70.59-2-85.26 0-84.17c2 1.09-40.5-50.37 9.5-67.74"/><path stroke="#FFF" stroke-width="13" d="M189 358.11s-79-35.84 0-70.59-2-85.26 0-84.17c2 1.09-32-29.87 18-47.24"/><path stroke="#FFF" stroke-width="13" d="M129 358.11s-79-35.84 0-70.59-2-85.26 0-84.17c2 1.09-25.5-14.35 24.5-31.74"/></g><path fill="#FFF" fill-rule="nonzero" d="M1022.22 354.112c12.802 8.529 22.937 19.522 30.405 32.981 7.468 13.46 11.201 28.184 11.201 44.175V551.6h-41.606V431.268c0-6.929-1.333-13.525-4-19.788-2.667-6.264-6.334-11.727-11.002-16.391-4.667-4.664-10.068-8.329-16.202-10.994-6.134-2.665-12.668-3.998-19.603-3.998-6.934 0-13.535 1.333-19.803 3.998-6.267 2.665-11.668 6.33-16.202 10.994-4.534 4.664-8.134 10.127-10.801 16.39-2.668 6.264-4.001 12.86-4.001 19.79V551.6H879V338.92h41.606v15.192c7.201-4.797 15.135-8.528 23.803-11.194 8.668-2.665 17.67-3.997 27.004-3.997 9.335 0 18.336 1.332 27.004 3.997 8.668 2.666 16.602 6.397 23.803 11.194zm310.445 105.14h-167.624a65.027 65.027 0 008.201 20.19c3.867 6.262 8.601 11.66 14.202 16.19 5.601 4.53 11.868 8.062 18.803 10.594 6.934 2.532 14.269 3.798 22.003 3.798 9.335 0 18.07-1.866 26.204-5.597 8.134-3.731 15.269-8.928 21.403-15.591h48.407a70.4 70.4 0 01-5.801 11.393 137.775 137.775 0 01-7.401 10.594c-9.602 12.26-21.603 22.054-36.005 29.384-14.402 7.329-30.005 10.993-46.807 10.993-14.669 0-28.404-2.731-41.206-8.195-12.802-5.464-24.003-12.992-33.605-22.587-9.601-9.595-17.135-20.788-22.603-33.581-5.467-12.793-8.201-26.518-8.201-41.177 0-14.658 2.734-28.384 8.201-41.176 5.468-12.793 13.002-23.987 22.603-33.581 9.602-9.595 20.803-17.124 33.605-22.588 12.802-5.463 26.537-8.195 41.206-8.195 16.802 0 32.405 3.665 46.807 10.994 14.402 7.329 26.403 17.257 36.005 29.783 8.801 10.66 15.202 23.187 19.203 37.579 2.4 8.528 3.6 17.59 3.6 27.184 0 4.798-.4 9.328-1.2 13.593zm-99.414-77.955c-13.069 0-24.737 3.398-35.005 10.194-10.268 6.796-18.07 15.79-23.404 26.985h116.817a160.975 160.975 0 01-3.8-6.397 65.836 65.836 0 00-3.801-5.996c-6.134-7.73-13.602-13.792-22.403-18.19-8.802-4.398-18.27-6.596-28.404-6.596zm365.252-41.977h44.806l-70.41 161.11-22.403 51.57-22.803-51.57-24.004-54.77-24.003 54.77-22.403 51.57-22.403-51.57-70.81-161.11h45.206l48.007 109.538 24.003-54.769 22.403-51.57 22.804 51.57 24.003 54.77 48.007-109.539zm286.241 106.34c0 14.659-2.734 28.384-8.201 41.177-5.468 12.793-13.002 23.986-22.603 33.58-9.602 9.596-20.803 17.124-33.605 22.588-12.802 5.464-26.537 8.195-41.206 8.195-14.669 0-28.404-2.731-41.206-8.195-12.802-5.464-24.003-12.992-33.605-22.587-9.601-9.595-17.136-20.788-22.603-33.581-5.468-12.793-8.201-26.518-8.201-41.177 0-14.658 2.733-28.384 8.2-41.176 5.468-12.793 13.003-23.987 22.604-33.581 9.602-9.595 20.803-17.124 33.605-22.588 12.802-5.463 26.537-8.195 41.206-8.195 12.268 0 23.803 1.932 34.605 5.797 10.801 3.864 20.736 9.261 29.804 16.19V199h41.206v246.66zm-105.615 64.364c8.801 0 17.136-1.666 25.003-4.997 7.868-3.332 14.736-7.93 20.603-13.793 5.868-5.863 10.469-12.726 13.802-20.588 3.334-7.862 5.001-16.19 5.001-24.986v-.4c0-8.795-1.667-17.056-5-24.785-3.334-7.73-7.935-14.526-13.803-20.389-5.867-5.863-12.735-10.46-20.603-13.792-7.867-3.332-16.202-4.997-25.003-4.997-8.801 0-17.136 1.665-25.004 4.997-7.868 3.331-14.735 7.929-20.603 13.792-5.867 5.863-10.534 12.726-14.002 20.588-3.467 7.863-5.2 16.191-5.2 24.986 0 8.795 1.733 17.124 5.2 24.986 3.468 7.862 8.135 14.725 14.002 20.588 5.868 5.864 12.735 10.461 20.603 13.793 7.868 3.331 16.203 4.997 25.004 4.997zm175.225 38.778V199.8h40.806v349.002h-40.806zm320.446-89.55h-167.624a65.027 65.027 0 008.201 20.19c3.867 6.262 8.601 11.66 14.202 16.19 5.6 4.53 11.868 8.062 18.803 10.594 6.934 2.532 14.268 3.798 22.003 3.798 9.335 0 18.07-1.866 26.204-5.597 8.134-3.731 15.268-8.928 21.403-15.591h48.407a70.398 70.398 0 01-5.801 11.393 137.772 137.772 0 01-7.401 10.594c-9.602 12.26-21.603 22.054-36.005 29.384-14.403 7.329-30.005 10.993-46.807 10.993-14.669 0-28.404-2.731-41.206-8.195-12.802-5.464-24.003-12.992-33.605-22.587-9.601-9.595-17.136-20.788-22.603-33.581-5.468-12.793-8.201-26.518-8.201-41.177 0-14.658 2.733-28.384 8.2-41.176 5.468-12.793 13.003-23.987 22.604-33.581 9.602-9.595 20.803-17.124 33.605-22.588 12.802-5.463 26.537-8.195 41.206-8.195 16.802 0 32.404 3.665 46.807 10.994 14.402 7.329 26.403 17.257 36.005 29.783 8.801 10.66 15.202 23.187 19.202 37.579 2.4 8.528 3.601 17.59 3.601 27.184 0 4.798-.4 9.328-1.2 13.593zm-104.415-77.955c-13.069 0-24.737 3.398-35.005 10.194-10.268 6.796-18.07 15.79-23.403 26.985h116.816a160.974 160.974 0 01-3.8-6.397 65.838 65.838 0 00-3.8-5.996c-6.135-7.73-13.603-13.792-22.404-18.19-8.801-4.398-18.27-6.596-28.404-6.596z"/></g></svg>