<?xml version="1.0" encoding="UTF-8" standalone="no"?>
<!DOCTYPE svg PUBLIC "-//W3C//DTD SVG 20010904//EN"
              "http://www.w3.org/TR/2001/REC-SVG-20010904/DTD/svg10.dtd">

<svg xmlns="http://www.w3.org/2000/svg"
     width="5.55556in" height="5.55556in"
     viewBox="0 0 500 500">
  <path id="Selection"
        fill="none" stroke="black" stroke-width="1"
        d="M 0.00,0.00
           C 0.00,0.00 0.00,284.00 0.00,284.00
             0.00,284.00 76.00,284.00 76.00,284.00
             71.54,276.87 66.43,270.02 67.19,261.00
             68.38,246.83 81.40,237.26 93.00,231.26
             100.66,227.30 106.12,225.25 113.00,219.54
             115.45,217.50 118.97,214.36 119.36,211.00
             119.91,206.19 114.35,201.47 111.00,198.82
             111.00,198.82 94.01,186.82 94.01,186.82
             89.74,182.96 86.33,177.71 83.00,173.00
             83.00,173.00 88.00,182.00 88.00,182.00
             88.00,182.00 60.00,187.20 60.00,187.20
             57.53,187.69 48.93,189.64 47.02,189.40
             41.36,188.70 37.98,180.00 45.00,174.00
             43.16,171.29 40.21,166.41 40.92,163.02
             42.09,157.42 56.83,153.59 62.00,151.68
             62.00,151.68 139.00,123.42 139.00,123.42
             139.00,123.42 236.00,87.95 236.00,87.95
             236.00,87.95 366.00,40.31 366.00,40.31
             366.00,40.31 435.00,14.95 435.00,14.95
             435.00,14.95 474.00,1.00 474.00,1.00
             474.00,1.00 459.00,0.00 459.00,0.00
             459.00,0.00 431.00,0.00 431.00,0.00
             431.00,0.00 334.00,0.00 334.00,0.00
             334.00,0.00 0.00,0.00 0.00,0.00 Z
           M 480.00,0.00
           C 481.79,3.54 485.06,8.96 482.36,12.78
             479.93,16.22 468.34,19.54 464.00,21.19
             464.00,21.19 416.00,38.81 416.00,38.81
             416.00,38.81 268.00,93.05 268.00,93.05
             243.20,102.12 210.62,115.39 186.00,122.00
             186.00,122.00 188.00,124.00 188.00,124.00
             181.80,128.72 180.84,132.66 183.36,140.00
             184.24,142.53 185.15,145.01 188.11,145.52
             190.66,145.96 207.27,142.35 211.00,141.60
             211.00,141.60 261.00,131.80 261.00,131.80
             261.00,131.80 429.00,99.20 429.00,99.20
             429.00,99.20 480.00,89.20 480.00,89.20
             482.90,88.62 493.04,86.43 495.38,87.15
             497.24,87.72 497.80,88.68 499.00,90.00
             495.82,91.13 495.41,99.97 496.00,103.00
             496.00,103.00 447.00,112.00 447.00,112.00
             447.00,112.00 359.00,129.20 359.00,129.20
             359.00,129.20 251.00,150.20 251.00,150.20
             251.00,150.20 197.00,161.00 197.00,161.00
             207.91,176.24 244.63,197.65 227.52,226.00
             225.19,229.86 221.38,233.84 218.00,236.82
             211.26,242.75 203.54,245.62 196.00,250.20
             192.11,252.57 187.44,255.55 185.74,260.00
             182.50,268.50 193.60,280.87 201.00,283.42
             203.03,284.11 205.84,284.00 208.00,284.00
             208.00,284.00 432.00,284.00 432.00,284.00
             432.00,296.03 431.48,308.10 429.56,320.00
             420.69,375.19 386.49,422.74 340.00,452.86
             327.38,461.04 303.48,473.70 289.00,477.00
             288.31,491.06 281.04,492.78 277.00,500.00
             277.00,500.00 500.00,500.00 500.00,500.00
             500.00,500.00 500.00,0.00 500.00,0.00
             500.00,0.00 480.00,0.00 480.00,0.00 Z
           M 178.00,125.00
           C 178.00,125.00 182.00,125.00 182.00,125.00
             182.00,125.00 178.00,125.00 178.00,125.00 Z
           M 170.00,128.00
           C 170.00,128.00 170.00,129.00 170.00,129.00
             170.00,129.00 171.00,128.00 171.00,128.00
             171.00,128.00 170.00,128.00 170.00,128.00 Z
           M 168.00,129.00
           C 160.42,133.20 153.36,135.15 145.00,137.00
             143.86,140.92 140.76,141.52 139.03,145.02
             137.03,149.02 139.50,153.26 141.00,157.00
             143.62,153.95 147.20,153.96 151.00,153.20
             151.00,153.20 171.00,149.00 171.00,149.00
             171.00,149.00 174.00,155.00 174.00,155.00
             174.00,155.00 169.17,143.00 169.17,143.00
             169.17,143.00 168.00,129.00 168.00,129.00 Z
           M 140.00,139.00
           C 140.00,139.00 140.00,140.00 140.00,140.00
             140.00,140.00 141.00,139.00 141.00,139.00
             141.00,139.00 140.00,139.00 140.00,139.00 Z
           M 129.00,143.00
           C 129.00,143.00 133.00,143.00 133.00,143.00
             133.00,143.00 129.00,143.00 129.00,143.00 Z
           M 124.00,145.00
           C 124.00,145.00 124.00,146.00 124.00,146.00
             124.00,146.00 125.00,145.00 125.00,145.00
             125.00,145.00 124.00,145.00 124.00,145.00 Z
           M 96.00,155.00
           C 95.27,158.29 92.84,160.86 93.46,164.42
             94.43,169.99 101.32,175.49 106.00,178.00
             106.00,178.00 94.00,164.00 94.00,164.00
             94.00,164.00 116.00,160.00 116.00,160.00
             116.00,160.00 123.89,157.41 123.89,157.41
             123.89,157.41 123.00,147.00 123.00,147.00
             123.00,147.00 96.00,155.00 96.00,155.00 Z
           M 186.00,147.00
           C 186.00,147.00 186.00,148.00 186.00,148.00
             186.00,148.00 187.00,147.00 187.00,147.00
             187.00,147.00 186.00,147.00 186.00,147.00 Z
           M 187.00,149.00
           C 187.00,149.00 191.00,154.00 191.00,154.00
             191.00,154.00 187.00,149.00 187.00,149.00 Z
           M 191.00,155.00
           C 191.00,155.00 194.00,158.00 194.00,158.00
             194.00,158.00 191.00,155.00 191.00,155.00 Z
           M 91.00,157.00
           C 91.00,157.00 95.00,157.00 95.00,157.00
             95.00,157.00 91.00,157.00 91.00,157.00 Z
           M 175.00,156.00
           C 175.00,156.00 177.00,160.00 177.00,160.00
             177.00,160.00 175.00,156.00 175.00,156.00 Z
           M 142.00,158.00
           C 142.00,158.00 153.00,169.00 153.00,169.00
             153.00,169.00 142.00,158.00 142.00,158.00 Z
           M 80.00,161.00
           C 80.00,161.00 84.00,161.00 84.00,161.00
             84.00,161.00 80.00,161.00 80.00,161.00 Z
           M 128.00,162.00
           C 128.00,162.00 136.00,172.00 136.00,172.00
             136.00,172.00 128.00,162.00 128.00,162.00 Z
           M 55.00,171.00
           C 55.00,171.00 79.00,167.00 79.00,167.00
             79.00,167.00 80.00,170.00 80.00,170.00
             80.00,170.00 79.00,163.00 79.00,163.00
             79.00,163.00 55.00,171.00 55.00,171.00 Z
           M 154.00,169.00
           C 154.00,169.00 161.91,177.01 161.91,177.01
             172.94,188.59 182.39,201.21 178.32,218.00
             175.45,229.89 163.25,239.14 153.00,244.69
             147.12,247.88 138.93,251.32 135.15,257.09
             133.73,259.25 133.01,261.41 133.43,264.00
             134.44,270.10 145.43,281.85 151.00,283.91
             152.97,284.40 158.56,284.00 161.00,283.91
             161.00,283.91 178.00,283.91 178.00,283.91
             174.51,277.76 170.61,272.49 170.10,265.00
             169.18,251.64 179.49,242.35 190.00,236.14
             199.61,230.47 218.04,223.65 216.89,210.00
             215.87,197.78 198.86,184.77 190.83,175.99
             188.60,173.55 181.70,165.62 178.91,164.88
             175.93,164.10 158.29,168.19 154.00,169.00 Z
           M 81.00,171.00
           C 81.00,171.00 81.00,172.00 81.00,172.00
             81.00,172.00 82.00,171.00 82.00,171.00
             82.00,171.00 81.00,171.00 81.00,171.00 Z
           M 108.00,178.00
           C 116.31,185.74 138.04,195.18 133.47,215.00
             128.27,237.55 94.10,243.01 84.57,256.01
             75.44,268.48 96.62,282.59 100.00,283.91
             101.97,284.40 107.56,284.00 110.00,283.91
             110.00,283.91 127.00,283.91 127.00,283.91
             123.64,276.07 117.64,271.07 118.53,261.00
             119.70,247.66 130.94,238.98 142.00,233.26
             149.70,229.28 160.72,223.58 164.01,215.00
             168.64,202.91 153.09,188.59 145.17,181.51
             142.57,179.18 138.00,173.85 134.83,173.29
             131.65,172.73 112.64,177.13 108.00,178.00 Z
           M 77.00,284.00
           C 77.00,284.00 77.00,285.00 77.00,285.00
             77.00,285.00 78.00,284.00 78.00,284.00
             78.00,284.00 77.00,284.00 77.00,284.00 Z
           M 128.00,284.00
           C 128.00,284.00 128.00,285.00 128.00,285.00
             128.00,285.00 129.00,284.00 129.00,284.00
             129.00,284.00 128.00,284.00 128.00,284.00 Z
           M 0.00,306.00
           C 0.00,306.00 0.00,500.00 0.00,500.00
             0.00,500.00 158.00,500.00 158.00,500.00
             148.17,493.31 143.29,490.02 143.00,477.00
             132.33,474.57 113.78,465.71 104.00,460.27
             66.39,439.36 32.48,404.86 15.43,365.00
             10.21,352.80 6.07,340.02 3.45,327.00
             3.45,327.00 0.00,306.00 0.00,306.00 Z
           M 144.00,477.00
           C 144.00,477.00 144.00,478.00 144.00,478.00
             144.00,478.00 145.00,477.00 145.00,477.00
             145.00,477.00 144.00,477.00 144.00,477.00 Z
           M 280.00,479.00
           C 280.00,479.00 280.00,480.00 280.00,480.00
             280.00,480.00 281.00,479.00 281.00,479.00
             281.00,479.00 280.00,479.00 280.00,479.00 Z" />
</svg>
