<svg xmlns="http://www.w3.org/2000/svg" viewBox="0 0 661.22 612.87"><defs><style>.cls-1{fill:#fff;}.cls-2{fill:none;stroke:#fff;stroke-miterlimit:10;stroke-width:13px;}</style></defs><title>Asset 1</title><g id="Layer_2" data-name="Layer 2"><g id="Layer_2-2" data-name="Layer 2"><path class="cls-1" d="M.17,350.11C.07,352.74,0,355.38,0,358,0,491.65,127.74,600,285.32,600S570.63,491.65,570.63,358c0-2.65-.07-5.29-.17-7.92Z"/><rect class="cls-1" x="189" y="534.32" width="192.25" height="78.56" rx="27.1"/><rect class="cls-1" x="49.44" y="159.99" width="615.91" height="18.64" rx="5.65" transform="translate(-24.34 66) rotate(-10.21)"/><rect class="cls-1" x="38.44" y="96.99" width="615.91" height="18.64" rx="5.65" transform="translate(-15.79 116.99) rotate(-18.75)"/><path class="cls-2" d="M256,357.11s-79-35.84,0-70.59-2-85.26,0-84.17-40.5-50.37,9.5-67.74"/><path class="cls-2" d="M189,356.11s-79-35.84,0-70.59-2-85.26,0-84.17-32-29.87,18-47.24"/><path class="cls-2" d="M129,356.11s-79-35.84,0-70.59-2-85.26,0-84.17S103.5,187,153.5,169.61"/></g></g></svg>