<?xml version="1.0" encoding="UTF-8" standalone="no"?>
<!DOCTYPE svg PUBLIC "-//W3C//DTD SVG 1.1//EN" "http://www.w3.org/Graphics/SVG/1.1/DTD/svg11.dtd">
<svg width="100%" height="100%" viewBox="0 0 400 400" version="1.1" xmlns="http://www.w3.org/2000/svg" xmlns:xlink="http://www.w3.org/1999/xlink" xml:space="preserve" xmlns:serif="http://www.serif.com/" style="fill-rule:evenodd;clip-rule:evenodd;stroke-linecap:round;stroke-linejoin:round;stroke-miterlimit:1.5;">
    <g transform="matrix(0.875,0,0,0.875,25,25)">
        <circle cx="200" cy="200" r="200" style="fill:none;stroke:black;stroke-width:21.43px;"/>
    </g>
    <g id="Layer1">
        <path d="M200,25L200,375" style="fill:none;stroke:black;stroke-width:12px;"/>
        <g transform="matrix(1.03293,0,0,1,-6.58535,0)">
            <path d="M200,25C200,25 295.021,59.31 292.272,200C289.523,340.69 200,375 200,375" style="fill:none;stroke:black;stroke-width:18.44px;"/>
        </g>
        <path d="M200,200L375,200" style="fill:none;stroke:black;stroke-width:12px;"/>
        <path d="M359.419,265.259C359.419,265.259 311.203,285.768 200,291.434" style="fill:none;stroke:black;stroke-width:12px;"/>
        <path d="M200,115.426C200,115.426 287.212,118.161 359.419,137.995" style="fill:none;stroke:black;stroke-width:12px;"/>
        <path d="M25,200L52.279,200" style="fill:none;stroke:black;stroke-width:12px;"/>
        <path d="M54.484,107.363L78.004,123.571" style="fill:none;stroke:black;stroke-width:12px;"/>
        <path d="M115.363,50.701L128.863,72.932" style="fill:none;stroke:black;stroke-width:12px;"/>
        <path d="M50.826,287.422L74.461,272.276" style="fill:none;stroke:black;stroke-width:12px;"/>
        <path d="M115.363,350.305L128.863,329.091" style="fill:none;stroke:black;stroke-width:12px;"/>
        <path d="M200,200L107.023,220.283" style="fill:none;stroke:black;stroke-width:12px;"/>
        <path d="M200,200L107.023,83.132" style="fill:none;stroke:black;stroke-width:12px;"/>
    </g>
</svg>
