<svg xmlns="http://www.w3.org/2000/svg" viewBox="0 0 661.9 612.9"><linearGradient id="a" gradientUnits="userSpaceOnUse" x1="54.218" y1="256.651" x2="661.881" y2="256.651" gradientTransform="matrix(1 0 0 -1 0 426)"><stop offset="0" stop-color="#94434f"/><stop offset="1" stop-color="#d68978"/></linearGradient><path d="M653.9 106.6l-595 107.1c-3.1.6-5.1 3.5-4.6 6.6l1.3 7.2c.6 3.1 3.5 5.1 6.6 4.6l595-107.1c3.1-.6 5.1-3.5 4.6-6.6l-1.3-7.2c-.6-3.1-3.5-5.1-6.6-4.6z" fill="url(#a)"/><path d="M354.8 612.9H216.7c-14.9 0-27.1-12.1-27.1-27v-24.5c0-14.9 12.1-27.1 27-27.1h138.2c14.9 0 27.1 12.1 27.1 27v24.5c-.1 14.9-12.2 27-27.1 27.1z" fill="#ff7381"/><linearGradient id="b" gradientUnits="userSpaceOnUse" x1="197.209" y1="43.394" x2="197.209" y2="278.905" gradientTransform="matrix(1 0 0 -1 0 426)"><stop offset="0" stop-color="#fdffc1"/><stop offset="1" stop-color="#ffd181"/></linearGradient><path d="M227.3 373.6c1.3.6-111.3-45.6-33.7-79.9 74.4-32.8 6.7-74.4-2-84.2-13.5-12.7-39.2-36.6 10.8-53.9" fill="none" stroke="url(#b)" stroke-width="18" stroke-miterlimit="10"/><linearGradient id="c" gradientUnits="userSpaceOnUse" x1="133.366" y1="50.922" x2="133.366" y2="255.422" gradientTransform="matrix(1 0 0 -1 0 426)"><stop offset="0" stop-color="#fdffc1"/><stop offset="1" stop-color="#ffd181"/></linearGradient><path d="M146.7 366.8s-96.1-41-17.1-75.8c77.5-34.1 17.6-57.1 0-69.2-7.6-7.6-34.4-28.4 3.8-42.8" fill="none" stroke="url(#c)" stroke-width="18" stroke-miterlimit="10"/><linearGradient id="d" gradientUnits="userSpaceOnUse" x1="264.397" y1="42.394" x2="264.397" y2="296.705" gradientTransform="matrix(1 0 0 -1 0 426)"><stop offset="0" stop-color="#fdffc1"/><stop offset="1" stop-color="#ffd181"/></linearGradient><path d="M293.9 374.6c1.3.6-109.3-45.6-31.7-79.9 74.6-32.9 9.1-71.7-2-84.2-13.5-12.7-54.7-55.4-4.7-72.7" fill="none" stroke="url(#d)" stroke-width="18" stroke-miterlimit="10"/><linearGradient id="e" gradientUnits="userSpaceOnUse" x1="53.876" y1="319.633" x2="640.124" y2="319.633" gradientTransform="matrix(1 0 0 -1 0 426)"><stop offset="0" stop-color="#94434f"/><stop offset="1" stop-color="#d68978"/></linearGradient><path d="M630.3.3L57.7 194.7c-2.9 1-4.5 4.2-3.5 7.1v.1l2.4 7c1 2.9 4.2 4.5 7.1 3.5h.1L636.3 18c2.9-1 4.5-4.2 3.5-7.1v-.1l-2.4-7c-1-2.9-4.2-4.5-7.1-3.5z" fill="url(#e)"/><linearGradient id="f" gradientUnits="userSpaceOnUse" x1="290.349" y1="-224.2" x2="283.899" y2="186.51" gradientTransform="matrix(1 0 0 -1 0 426)"><stop offset="0" stop-color="#ff7bc1"/><stop offset=".73" stop-color="#ffa181"/><stop offset="1" stop-color="#ff7381"/></linearGradient><path d="M.6 349.1c-.1 2.6-.2 5.3-.2 7.9 0 133.6 127.7 241.9 285.3 241.9S571 490.6 571 357c0-2.7-.1-5.3-.2-7.9H.6z" fill="url(#f)"/></svg>
